<svg width="12" height="12" viewBox="0 0 12 12" fill="none" xmlns="http://www.w3.org/2000/svg">
<g clip-path="url(#clip0_39_946)">
<path d="M5.99999 11.578C5.66094 11.578 5.38354 11.3006 5.38354 10.9615V0.944271C5.38354 0.605221 5.66094 0.32782 5.99999 0.32782C6.33904 0.32782 6.61645 0.605221 6.61645 0.944271V10.9615C6.61645 11.3006 6.33904 11.578 5.99999 11.578ZM3.3801 9.75945C3.04105 9.75945 2.76365 9.48205 2.76365 9.14302V2.9169C2.76365 2.57786 3.04105 2.30046 3.3801 2.30046C3.71915 2.30046 3.99654 2.57786 3.99654 2.9169V9.14302C3.99654 9.48205 3.71914 9.75945 3.3801 9.75945ZM0.76019 8.12588C0.421154 8.12588 0.143753 7.84848 0.143753 7.50943V4.7046C0.143753 4.36555 0.421154 4.08815 0.76019 4.08815C1.09923 4.08815 1.37664 4.36555 1.37664 4.7046V7.50943C1.40746 7.84848 1.13006 8.12588 0.76019 8.12588ZM11.2398 8.12588C10.9007 8.12588 10.6233 7.84848 10.6233 7.50943V4.7046C10.6233 4.36555 10.9007 4.08815 11.2398 4.08815C11.5788 4.08815 11.8562 4.36555 11.8562 4.7046V7.50943C11.8562 7.84848 11.5788 8.12588 11.2398 8.12588ZM8.65072 9.72864C8.31167 9.72864 8.03427 9.45124 8.03427 9.11219V2.88608C8.03427 2.54703 8.31167 2.26963 8.65072 2.26963C8.98977 2.26963 9.26716 2.54703 9.26716 2.88608V9.11219C9.26716 9.45124 8.98976 9.72864 8.65072 9.72864Z" fill="#0032FF"/>
</g>
<defs>
<clipPath id="clip0_39_946">
<rect width="12" height="12" fill="white"/>
</clipPath>
</defs>
</svg>
